<svg width="1161" height="610" viewBox="0 0 1161 610" fill="none" xmlns="http://www.w3.org/2000/svg">
<g clip-path="url(#clip0)">
<path d="M1097.96 610H74.2326C64.7044 610 56.9816 604.612 56.9816 598.027V441.784C56.9816 435.199 64.7044 429.811 74.2326 429.811H1097.96C1107.49 429.811 1115.21 435.199 1115.21 441.784V598.127C1115.11 604.612 1107.49 610 1097.96 610Z" fill="#E99B49" stroke="#282828" stroke-width="5" stroke-miterlimit="10"/>
<path d="M23.0755 400.496C24.5905 392.759 33.8698 387.054 44.7589 387.054H1123.91C1138.4 387.054 1150.14 395.564 1150.14 406.008C1150.14 406.008 1152.98 428.152 1147.11 434.148C1131.96 449.04 1082.44 451.941 1058.95 458.13C1030.83 465.673 993.998 503.483 951.295 503.773C903.951 504.063 821.384 451.264 769.211 451.651C719.216 452.038 634.566 504.45 584.476 503.773C533.156 503.096 474.45 457.163 400.025 454.552C374.933 453.682 318.689 466.253 310.641 483.466C302.876 499.808 304.77 535.685 265.285 535.685C217.563 535.685 219.362 525.144 201.466 478.727C188.778 446.139 58.1098 466.64 26.2949 443.044C17.5836 436.565 20.2349 414.904 23.0755 400.496Z" fill="#C0978D" stroke="#282828" stroke-width="4"/>
<rect x="55.5067" y="459.825" width="5.41333" height="4.82506" transform="rotate(-180 55.5067 459.825)" fill="#E6D583"/>
<rect x="54.0756" y="459.825" width="5.41333" height="4.82506" transform="rotate(-180 54.0756 459.825)" fill="#E6D583"/>
<rect x="53.4533" y="463.79" width="3.92" height="4.82506" transform="rotate(-180 53.4533 463.79)" fill="#C4C4C4"/>
<path d="M50.0931 466.303C49.2569 467.215 47.8187 467.215 46.9825 466.303V466.303C45.7421 464.95 46.7021 462.768 48.5378 462.768V462.768C50.3735 462.768 51.3335 464.95 50.0931 466.303V466.303Z" fill="#C4C4C4"/>
<path d="M53.0175 464.551C52.1813 465.464 50.7431 465.464 49.9069 464.551V464.551C48.6665 463.198 49.6265 461.016 51.4622 461.016V461.016C53.2979 461.016 54.2579 463.198 53.0175 464.551V464.551Z" fill="#C4C4C4"/>
<path d="M53.1088 464.036C52.3579 465.222 50.6287 465.222 49.8778 464.036V464.036C49.0711 462.763 49.9859 461.1 51.4933 461.1V461.1C53.0007 461.1 53.9156 462.763 53.1088 464.036V464.036Z" fill="#C4C4C4"/>
<path d="M54.2911 464.897C53.5401 466.082 51.811 466.082 51.0601 464.897V464.897C50.2533 463.624 51.1682 461.961 52.6756 461.961V461.961C54.183 461.961 55.0978 463.624 54.2911 464.897V464.897Z" fill="#C4C4C4"/>
</g>
<rect x="539" y="227" width="87" height="157" fill="#E6D583"/>
<rect x="883" y="227" width="87" height="157" fill="#E6D583"/>
<rect x="200" y="227" width="87" height="157" fill="#E6D583"/>
<path d="M549.115 88.4286C561.529 61.0085 600.471 61.0084 612.885 88.4285L635.696 138.815C646.185 161.984 629.243 188.25 603.811 188.25H558.189C532.757 188.25 515.815 161.984 526.304 138.815L549.115 88.4286Z" fill="#D43A01"/>
<path d="M893.115 88.4286C905.529 61.0085 944.471 61.0084 956.885 88.4285L979.696 138.815C990.185 161.984 973.243 188.25 947.811 188.25H902.189C876.757 188.25 859.815 161.984 870.304 138.815L893.115 88.4286Z" fill="#D43A01"/>
<path d="M210.115 88.4286C222.529 61.0085 261.471 61.0084 273.885 88.4285L296.696 138.815C307.185 161.984 290.243 188.25 264.811 188.25H219.189C193.757 188.25 176.815 161.984 187.304 138.815L210.115 88.4286Z" fill="#D43A01"/>
<path d="M576.728 4.24862C578.191 -0.427032 584.809 -0.427016 586.272 4.24864L635.327 161.007C636.334 164.227 633.929 167.5 630.555 167.5H532.445C529.071 167.5 526.666 164.227 527.673 161.007L576.728 4.24862Z" fill="#D43A01"/>
<path d="M920.728 4.24862C922.191 -0.427032 928.809 -0.427016 930.272 4.24864L979.327 161.007C980.334 164.227 977.929 167.5 974.555 167.5H876.445C873.071 167.5 870.666 164.227 871.673 161.007L920.728 4.24862Z" fill="#D43A01"/>
<path d="M237.728 4.24862C239.191 -0.427032 245.809 -0.427016 247.272 4.24864L296.327 161.007C297.334 164.227 294.929 167.5 291.555 167.5H193.445C190.071 167.5 187.666 164.227 188.673 161.007L237.728 4.24862Z" fill="#D43A01"/>
<defs>
<clipPath id="clip0">
<rect y="384" width="1161" height="226" fill="white"/>
</clipPath>
</defs>
</svg>
