<?xml version="1.0" encoding="utf-8"?>
<!-- Generator: Adobe Illustrator 23.0.2, SVG Export Plug-In . SVG Version: 6.00 Build 0)  -->
<svg version="1.1" id="Слой_1" xmlns="http://www.w3.org/2000/svg" xmlns:xlink="http://www.w3.org/1999/xlink" x="0px" y="0px"
	 viewBox="0 0 1200 234" style="enable-background:new 0 0 1200 234;" xml:space="preserve">
<style type="text/css">
	.st0{fill:none;stroke:#000000;stroke-miterlimit:10;}
	.st1{fill:#E99B49;stroke:#282828;stroke-width:5;stroke-miterlimit:10;}
	.st2{fill:#C49D9E;stroke:#282828;stroke-width:4;}
</style>
<g>
	<g>
		<path class="st0" d="M198,420.6"/>
	</g>
</g>
<path class="st1" d="M1122.8,231H102.1c-9.5,0-17.2-5.4-17.2-12V62.4c0-6.6,7.7-12,17.2-12h1020.7c9.5,0,17.2,5.4,17.2,12v156.7
	C1139.9,225.6,1132.3,231,1122.8,231z"/>
<path class="st2" d="M5.9,16.9C7.5,8.9,17.3,3,28.8,3h1139.7c15.3,0,27.7,8.8,27.7,19.6c0,0,3,22.9-3.2,29.1
	c-16,15.4-68.3,18.4-93.1,24.8c-29.7,7.8-68.6,46.9-113.7,47.2c-50,0.3-137.2-54.3-192.3-53.9c-52.8,0.4-142.2,54.6-195.1,53.9
	C544.6,123,482.6,75.5,404,72.8c-26.5-0.9-85.9,12.1-94.4,29.9c-8.2,16.9-6.2,54-47.9,54c-50.4,0-48.5-10.9-67.4-58.9
	C180.9,64.1,42.9,85.3,9.3,60.9C0.1,54.2,2.9,31.8,5.9,16.9z"/>
</svg>
