<?xml version="1.0" encoding="utf-8"?>
<!-- Generator: Adobe Illustrator 23.0.2, SVG Export Plug-In . SVG Version: 6.00 Build 0)  -->
<svg version="1.1" id="Слой_1" xmlns="http://www.w3.org/2000/svg" xmlns:xlink="http://www.w3.org/1999/xlink" x="0px" y="0px"
	 viewBox="0 0 1000 274" style="enable-background:new 0 0 1000 274;" xml:space="preserve">
<style type="text/css">
	.st0{fill:#E99B49;stroke:#282828;stroke-width:6;stroke-miterlimit:10;}
	.st1{fill:#991D1C;stroke:#282828;stroke-width:6;}
</style>
<path class="st0" d="M935.3,271H85.5c-7.9,0-14.3-6.4-14.3-14.3V70.6c0-7.9,6.4-14.3,14.3-14.3h849.8c7.9,0,14.3,6.4,14.3,14.3
	v186.2C949.6,264.6,943.2,271,935.3,271z"/>
<path class="st1" d="M5.4,19.3C6.8,9.9,14.9,3,24.5,3h948.9c12.7,0,23.1,10.3,23.1,22.9c0,0,2.5,26.8-2.7,34
	c-13.3,18-56.9,21.5-77.5,29c-24.7,9.1-57.1,54.8-94.7,55.2c-41.6,0.4-114.2-63.5-160.1-63c-44,0.5-118.4,63.8-162.4,63
	c-45.2-0.8-96.8-56.3-162.2-59.5c-22.1-1.1-71.5,14.1-78.6,34.9c-6.8,19.7-5.2,63.1-39.9,63.1c-42,0-40.4-12.8-56.1-68.8
	C151.1,74.4,36.2,99.2,8.3,70.7C0.6,62.8,2.9,36.7,5.4,19.3z"/>
</svg>
