<svg width="799" height="384" viewBox="0 0 799 384" fill="none" xmlns="http://www.w3.org/2000/svg">
<path d="M441.852 226.258H354.852V383.258H441.852V226.258Z" fill="#E6D583"/>
<path d="M785.852 226.258H698.852V383.258H785.852V226.258Z" fill="#E6D583"/>
<path d="M102.852 226.258H15.8516V383.258H102.852V226.258Z" fill="#E6D583"/>
<path d="M364.967 87.6867C377.381 60.2666 416.323 60.2665 428.737 87.6866L451.548 138.073C462.037 161.242 445.095 187.508 419.663 187.508H374.041C348.609 187.508 331.667 161.242 342.156 138.073L364.967 87.6867Z" fill="#D43A01"/>
<path d="M708.967 87.6867C721.381 60.2666 760.323 60.2665 772.737 87.6866L795.548 138.073C806.037 161.242 789.095 187.508 763.663 187.508H718.041C692.609 187.508 675.667 161.242 686.156 138.073L708.967 87.6867Z" fill="#D43A01"/>
<path d="M25.9666 87.6867C38.3806 60.2666 77.3226 60.2665 89.7366 87.6866L112.548 138.073C123.037 161.242 106.095 187.508 80.6626 187.508H35.0406C9.60859 187.508 -7.3334 161.242 3.1556 138.073L25.9666 87.6867Z" fill="#D43A01"/>
<path d="M392.58 3.50673C394.043 -1.16892 400.661 -1.16891 402.124 3.50675L451.179 160.265C452.186 163.485 449.781 166.758 446.407 166.758H348.297C344.923 166.758 342.518 163.485 343.525 160.265L392.58 3.50673Z" fill="#D43A01"/>
<path d="M736.58 3.50673C738.043 -1.16892 744.661 -1.16891 746.124 3.50675L795.179 160.265C796.186 163.485 793.781 166.758 790.407 166.758H692.297C688.923 166.758 686.518 163.485 687.525 160.265L736.58 3.50673Z" fill="#D43A01"/>
<path d="M53.5796 3.50673C55.0426 -1.16892 61.6606 -1.16891 63.1236 3.50675L112.179 160.265C113.186 163.485 110.781 166.758 107.407 166.758H9.2966C5.9226 166.758 3.5176 163.485 4.5246 160.265L53.5796 3.50673Z" fill="#D43A01"/>
</svg>
