<svg width="2289" height="466" viewBox="0 0 2289 466" fill="none" xmlns="http://www.w3.org/2000/svg">
<path d="M2289 85.4631H-222C-222 43.8136 -144.059 10 -48.0558 10H2114.86C2211.06 10 2289 43.8136 2289 85.4631Z" stroke="#333333" stroke-width="20" stroke-miterlimit="10"/>
<path d="M1801.33 455.624H265.672C265.672 415.252 341.257 382.461 434.315 382.461H1632.49C1725.74 382.461 1801.33 415.252 1801.33 455.624Z" stroke="#333333" stroke-width="20" stroke-miterlimit="10"/>
<path d="M934.159 126.005H1132.84C1132.84 126.005 1132.84 244.396 1132.84 270.714C1132.84 290.474 1257.11 319.944 1313.46 323.351C1421.83 329.909 1498.01 347.71 1510.57 382.972L590.983 382.546C583.719 341.918 690.127 326.332 780.436 319.774C833.641 315.941 934.355 283.916 934.355 270.714C934.159 250.954 934.159 126.005 934.159 126.005Z" stroke="#333333" stroke-width="20" stroke-miterlimit="10"/>
<path d="M1223.15 92.1918C1223.15 114.507 1142.26 132.649 1042.53 132.649C942.798 132.649 861.911 114.507 861.911 92.1918C861.911 89.8921 862.893 87.6776 864.464 85.4631H1220.79C1222.36 87.6776 1223.15 89.8921 1223.15 92.1918Z" fill="white" stroke="#333333" stroke-width="20" stroke-miterlimit="10"/>
</svg>
