<?xml version="1.0" encoding="utf-8"?>
<!-- Generator: Adobe Illustrator 23.0.2, SVG Export Plug-In . SVG Version: 6.00 Build 0)  -->
<svg version="1.1" id="Слой_1" xmlns="http://www.w3.org/2000/svg" xmlns:xlink="http://www.w3.org/1999/xlink" x="0px" y="0px"
	 viewBox="0 0 1300 544" style="enable-background:new 0 0 1300 544;" xml:space="preserve">
<style type="text/css">
	.st0{fill:none;stroke:#333333;stroke-width:20;stroke-miterlimit:10;}
	.st1{fill:#FFFFFF;stroke:#333333;stroke-width:20;stroke-miterlimit:10;}
	.st2{fill:#333333;}
</style>
<g>
	<path class="st0" d="M1289,98.4H10v0C10,49.5,49.7,9.8,98.6,9.8l1101.7,0C1249.3,9.8,1289,49.5,1289,98.4L1289,98.4z"/>
	<path class="st0" d="M1040.6,533H258.4v0c0-47.4,38.5-85.9,85.9-85.9h610.3C1002.1,447.1,1040.6,485.6,1040.6,533L1040.6,533z"/>
	<path class="st0" d="M598.9,146h101.2c0,0,0,139,0,169.9c0,23.2,63.3,57.8,92,61.8c55.2,7.7,94,28.6,100.4,70l-468.4-0.5
		c-3.7-47.7,50.5-66,96.5-73.7c27.1-4.5,78.4-42.1,78.4-57.6C598.9,292.7,598.9,146,598.9,146z"/>
	<path class="st1" d="M746.1,106.3c0,26.2-41.2,47.5-92,47.5s-92-21.3-92-47.5c0-2.7,0.5-5.3,1.3-7.9h181.5
		C745.7,101,746.1,103.6,746.1,106.3z"/>
</g>
<rect x="635.5" y="42.4" class="st2" width="214.7" height="16.4"/>
<rect x="887.6" y="42.4" class="st2" width="382.8" height="16.4"/>
</svg>
