<?xml version="1.0" encoding="utf-8"?>
<!-- Generator: Adobe Illustrator 23.0.0, SVG Export Plug-In . SVG Version: 6.00 Build 0)  -->
<svg version="1.1" id="Слой_1" xmlns="http://www.w3.org/2000/svg" xmlns:xlink="http://www.w3.org/1999/xlink" x="0px" y="0px"
	 viewBox="0 0 115.7 99.8" style="enable-background:new 0 0 115.7 99.8;" xml:space="preserve">
<style type="text/css">
	.st0{fill:url(#SVGID_1_);}
	.st1{fill:#FFCACF;}
	.st2{fill:url(#SVGID_2_);}
	.st3{opacity:0.3;fill:#070001;enable-background:new    ;}
	.st4{opacity:0.2;fill:#070001;enable-background:new    ;}
	.st5{opacity:0.7;fill:#FFFFFF;enable-background:new    ;}
	.st6{opacity:0.6;fill:#FFFFFF;enable-background:new    ;}
	.st7{opacity:0.4;fill:#FFFFFF;enable-background:new    ;}
	.st8{opacity:0.3;fill:#FFFFFF;enable-background:new    ;}
	.st9{fill:#702717;}
	.st10{fill:#531406;}
	.st11{fill:#8E3C2A;}
	.st12{fill:#B4050C;}
	.st13{opacity:0.2;fill:#020000;enable-background:new    ;}
	.st14{opacity:0.3;fill:#020000;enable-background:new    ;}
	.st15{opacity:0.2;fill:#FFFFFF;enable-background:new    ;}
</style>
<title>Ресурс 1</title>
<g>
	<g id="Layer_9">
		
			<linearGradient id="SVGID_1_" gradientUnits="userSpaceOnUse" x1="0.6864" y1="37.2043" x2="115.5436" y2="37.2043" gradientTransform="matrix(1 0 0 -1 0 100)">
			<stop  offset="1.000000e-02" style="stop-color:#FF775E"/>
			<stop  offset="1" style="stop-color:#ED0018"/>
		</linearGradient>
		<path class="st0" d="M112.5,87.5C106.7,95.1,9,103,3.7,98.4C-1.9,93.4,2,60.1,2,60.1S69.9,26,76,25.8s33.6,8.5,36.4,12.3
			S117.8,80.7,112.5,87.5z"/>
		<path class="st1" d="M105.9,81.1C103.6,84.2,3.9,95.2,2.2,92.6s-2.9-29.2,0-34.7c1.6-3.1,21.1-13,39.2-20.3
			c14.3-5.7,28-9.5,29.6-9.6c3.6-0.5,32.8,8.1,34.9,12S108.2,77.9,105.9,81.1z"/>
		
			<linearGradient id="SVGID_2_" gradientUnits="userSpaceOnUse" x1="0.3542" y1="33.5124" x2="109.4181" y2="33.5124" gradientTransform="matrix(1 0 0 -1 0 100)">
			<stop  offset="0" style="stop-color:#FF979D"/>
			<stop  offset="0.99" style="stop-color:#FF979D"/>
		</linearGradient>
		<path class="st2" d="M2.2,58.8c1.5-1.2,19.9,1.2,56.7-5.6s45.8-15.1,47.3-13.3c2.8,3.4,5.3,36.8,0.5,42.1
			C102.6,86.6,4.3,95.9,2.2,92.6S-0.6,61.1,2.2,58.8z"/>
		<g id="Layer_11">
			<path class="st3" d="M1.2,90.7c0,0,0-0.1,0-0.1C1.2,90.6,1.2,90.6,1.2,90.7z"/>
			<path class="st4" d="M111.7,37.5c-15.1-5.6-37.2-9.1-37.2-9.1c15.1,3.5,25.1,7.8,28.7,9.6c0.7,0.4,1.4,0.8,2,1.4
				c-2.2,1-5,2.2-9,3.7c-1.7-1-10.2-6.3-12-6.5c-2-0.1-8.3-4.4-9.1-4s-2.8,2.1-1.7,3.2s11.4,6.9,12.8,6.6c0.9-0.2,2.4,1.8,3.9,2.8
				c-4.6,1.5-10.3,3.2-17.2,4.9c0-1.3-0.7-2.6-1.9-3.2c-2.5-1.4-5.2-3.1-4.1-3.2s7.7-0.9,8.2-1.6s-12-1.3-12,0
				c0,1.1,4.7,6.3,6.9,8.6c-1.6,0.4-3.3,0.8-5,1.2c-2.5,0.5-3.5,0.8-5.8,1.2c-2.2-4.4-8.2-5.6-10.6-6.6c-2.2-1-4.1-2.6-5.4-4.7
				c-1.5-2-5.5-1.7-5.7-1.8c-2-0.1,0.1,5-1.2,4.6s-3.5-0.8-3.2-0.4s1,0,1.5,1.5s8.6,7.5,8.6,7.5s0.9,1.2,1.7,2.3
				c-3.3,0.5-5.1,0.5-8.1,0.8c-1.3-0.9-3.2-1.5-5.4-4c-2.2-2.3-5-3.8-8.1-4.3c-0.3,0,4.9,6.2,7.1,9.1c-4.3,0.4-8,0.6-11.4,0.7
				c-0.3-1.2-1.4-2.1-2.7-2c-0.7,0-1.2-2.5-1.2-2.5C14,53.5,15,56,14.8,57c0,0.4,0.2,0.9,0.5,1.2c-2.8,0-5.1,0-7,0
				c-0.4-0.7-1.1-1.3-1.9-1.6v1.6c-1.2-0.1-2.4,0-3.6,0.1C0.1,59,0.4,72.8,0.4,72.8c0.3-1.7,2.2-3.2,5.7-4.5L5.6,88.6
				c0,0-0.2,4-0.6,6.6c-3.2-1.9-3.8-4-3.9-4.5c0.8,6.4,1.7,8.1,5.3,8.7s10.5,0.4,20.2,0.3c12.6-0.2,33.9-2.1,49.7-4
				c10.2-1.2,17.9-2.6,20-3c5.3-0.9,13.5-2.6,15.7-4.7c1.2-1.1,1.8-3.7,2.6-7.7C116.9,70.1,114.7,38.6,111.7,37.5z M96.7,89.9
				c-13.5,2.5-46.8,6.5-68.6,8.1c-9.6,0.7-15.8-0.1-19.8-1.4c-0.1-1.1-0.4-2.2-0.8-3.3C7,91.9,8,74.4,8,71.6c0-0.9,0.1-2.4,0.2-4.1
				c6.9-2,13.9-3.4,21.1-4.4c-0.7,5.7-1.2,19-1.1,19.4c0.1,3.4-0.3,6.8-1.4,10c-1.4,4,2.2,4.1,3.8,1.8s-0.1-10,0-13.3
				c0.1-3.9,0.7-7.9,1.7-11.7c0.6-2.3,0.9-4.6,0.9-6.9c6.5-0.9,13.4-1.8,20-2.5c-1.8,4.3-1.9,12.6-1.9,12.6s-2.1,12.8-2.6,14.8
				s0.4,4.8,3.3,3s1.5-4.9,0.9-7.1s0-3.7,0-5.2s2-6.3,3.2-8.1s0.2-5.2,0-7.3c0-1.1,0.3-2.2,0.9-3.2c13.7-1.6,25.9-3,31-4.5
				c0.6-0.2,1.3-0.3,2-0.3c-1.1,2.8-0.5,9.6-0.5,10.7c0,1.6-3.6,14.6-4.4,17.3s0.4,5.3,3.5,4.3s1.9-7.8,2-10.8
				c0.3-3.6,0.7-7.2,1.4-10.8c0.4-2.3,1.1-7,1.3-9.3C99.3,61.6,97.6,82.4,96.7,89.9L96.7,89.9z"/>
			<path class="st5" d="M8.2,54.5c0,0,33-17.7,49.6-21.9s15.4-4.7,27.9,0c8.3,3.1-0.4-1.6-12.7-1.3c-6.3,0.2-13,3.3-20.2,6.2
				C32.1,45.5-1.9,60.9,8.2,54.5z"/>
			<path class="st6" d="M19.6,57.8c0.3,0,6.9-0.4,7.4-0.6S25,56.7,23,56.9S18.5,57.8,19.6,57.8z"/>
			<path class="st6" d="M81.7,46.9c0.1,0.4-1.7,1.2-4,1.8s-4.3,0.6-4.4,0.2s1.7-1.2,4-1.7S81.6,46.5,81.7,46.9z"/>
			<path class="st7" d="M46.3,96.2c0.6-1.9,1-4,1-6c0-13.5-8.4-20.3-19.2-19.2C17.6,72.2,8.9,79.7,8.9,90.3c0,2.3,0.4,4.7,1.3,6.9
				C19.7,99.6,37.4,97.3,46.3,96.2z"/>
			<path class="st7" d="M24,78.1c1,2-0.3,4.7-2.9,5.9s-5.5,0.7-6.5-1.3s0.3-4.7,2.9-5.9S23,76.1,24,78.1z"/>
			<path class="st8" d="M100.2,36.5c-0.3-1.6-23-7.8-25.7-8.1S3.7,56.7,3.7,56.7C69.5,54.5,100.5,38.1,100.2,36.5z"/>
		</g>
		<path class="st9" d="M2.1,57.5c0.5-0.9,0.4-1.7,2.7-1.9S6,57.4,6.8,58s0.9,2.9,0.5,5.1s-0.5,8.9-0.7,10.4s-0.3,16.2,0,18.5
			S7.5,98,6,98s-2.6-1.2-2.1-3.1s-0.4-8-0.3-11S3.4,69.2,4.1,67s1.6-6.8,0.7-7.5S1.5,58.5,2.1,57.5z"/>
		<path class="st9" d="M11.4,53.6c0.3-0.3,3-1.1,3.6,0s0.4,2.8,1,3c0.7,0.2,1.5-0.1,1.9,0.9s0.7,5.3-0.7,6.2s-2.3,0.4-1.8-1.2
			s1.3-3.4,0.4-4S12,56.7,11.4,56c-0.7-0.5-0.8-1.4-0.3-2.1C11.2,53.8,11.3,53.7,11.4,53.6z"/>
		<path class="st9" d="M76.9,30.5c0,0,4.4,0.1,5.8,1.8s7.1,4.9,8.7,5.1s9.5,1.9,9.7,3.5s-0.9,6.8-1.3,9.2s0.3,10.3-1.3,9.2
			s-2-4.3-2-5.4s0.3-5.2,0.7-7.1s0.7-2.8-1.7-3.1s-2.8,0-4.4-1.7s-6.8-4.7-8.6-4.6s-3.9-0.4-5-1.5S72.5,31.5,76.9,30.5z"/>
		<path class="st9" d="M72.9,32.6c0.5,0,7.5,8.3,10.5,7.6c1.8-0.5,8.2,2.9,7.5,5.1s-0.4,4.5,0,7.8s-1,8.6-0.8,12.9s-1.9,19.2-3.9,19
			s-1.2-4.2,0.8-15.3c0.4-2.5-0.7-6.7-1.8-11.1s3.4-10.1,1.8-10.8c-2.1-0.9-6.8-1.7-8.2-4.3c-1.8-3.4-8.3,0.9-11.4-1.2
			s-7.6-2.7-6.9-4.4S64.9,32.4,72.9,32.6z"/>
		<path class="st9" d="M48.1,35.2c1.7-3,4.2-0.9,5.9,0c2.5,1.4,5.2,2.4,8,2.8c1.8,0.2,6.7,3.4,4.7,3.8s-5.2,1.1-3.6,1.7
			s6.6,4.3,8,5.7s0.7,5.5-0.5,6.2s-6.4,1.1-5.5-1.8c0.8-2.6-0.9-4.2-3.2-5.1s-3.3-3.7-4.7-5.1s-4-1-4-2.6
			C53.2,38.2,46.6,37.9,48.1,35.2z"/>
		<path class="st9" d="M34.1,40.8c0.4-1.8,2-0.8,5-0.3c5.1,0.8,4.7,6.5,10.4,8.1c2.7,0.7,6.2,3.8,5.4,6.2s-0.5,3.8-1.8,5.6
			s0.1,3.5,0,5.3s-2,7-2.4,9s0.2,11.4-0.8,13s-1.3,1-1.5-0.6c-0.4-2.6-0.6-5.2-0.5-7.8c0.3-2,2.3-7.5,1.5-9.5s-1.6-5.3-1-7.9
			s0.9-4.3,0.5-5.8c-0.8-2.9-4.7-2.1-5.7-4.1c-1.4-2.4-3.2-4.6-5.3-6.5C36.7,44.6,33.7,42.4,34.1,40.8z"/>
		<path class="st9" d="M29.5,43.7c1.3-0.5,1.7-0.2,4.6,0.7s3.5,3.3,5.1,4s8.2,5.9,7.2,10.2s-5,2.5-5.2,0.2s-3.8-5-4.3-5.7
			s-6-4.9-6.5-5.7S28.2,44.2,29.5,43.7z"/>
		<path class="st9" d="M20.9,49c0,0,0.9-1.2,3.6-0.5s7.2,5.6,7.5,6.6s1.7,1.5,0.6,4.4s-2,1.8-1.9,3.6c0.1,1.9-0.6,9.3-0.9,11.6
			s-1.4,9-1.1,10.8s1,7.2,0,7.9s-2.5,1-2.2-1.7c0.4-2.2,0.5-4.5,0.4-6.7c-0.2-1.5-1.6-12.4,0-16.1s1.6-5.1,1-7
			c-0.4-1.2-0.5-2.5-0.4-3.7c0.1-1.2,0.7-2.3-0.7-2.5S18.5,51.3,20.9,49z"/>
		<path class="st10" d="M74.5,30.8c-0.1,1.4,0.7,2.7,1.9,3.4c2,0.7,4.1,1.1,6.2,1.4c1.9,0,6,4,11,4c3.4,0,5.5,2.7,3.1,3.5
			c-0.9,0.3,1.1,1.2,1,2.5s-1.4,6.9-1.3,8.7s1.3,5.4,2,5.1s0.9-0.3,1.1-4.8c0.2-3.3,0.5-6.5,1.1-9.7c0.2-1,2-5.2-1.7-5.9
			s-7-1.6-8.6-1.9s-5.8-2.7-6.7-3.8C81.9,30.9,78.1,30,74.5,30.8z"/>
		<path class="st10" d="M52.2,34.2c0,0,4,3,6.4,2.8s8.8,3.2,10.5,1.6s4.8-4.9,5.4-4.4s4.6,4.3,5.6,4.8c1.7,0.7,3.5,1,5.3,1.2
			c1.2,0.1,6.1,2.8,5.6,5.3c-0.5,2-0.5,4.1,0,6.1c0.5,1.3,0.1,10.6-0.4,12.7s-1,8.8-1.4,11.4s0.3,6.1-0.6,8.5s-5,0.8-2.6-2.3
			s0.5-4.3,1.2-6.8s0.6-10.1-0.2-11.5s-1.4-6.7,0.2-11.1s1.5-5.4-0.2-6s-0.3-2-2.4-2.8s-5.1-2.7-7.8-2.3s-3.6,1.5-7.3,1.7
			s-4.6-0.6-5-0.5s-0.6,1.4,0.8,2.4c1.5,1,7.2,3.9,6.6,7s0,3.9-4.1,4.2s-1.9-2.5-1.9-3.4s4.1-1.8,1.4-3.8c-1.9-1.4-6.4-3.4-7.8-5.2
			c-1.1-1.4-2.5-2.6-4.1-3.5c-1.5-0.9-1.2-2.2-2-3S48.6,32.4,52.2,34.2z"/>
		<path class="st10" d="M41,41c1.1,0.5,3.8,4.5,4.7,4.8s1.6,2.3,5.7,3s5.1,4.2,4.8,5.4s-0.2,4.5-1,5.3s-2,2.2-1.2,4s1.5,4.4,0.3,6.6
			s-3,6.4-2.4,8.4s-0.2,6.9,0.6,8.6s-2.6,4.2-3.4,1.4s0.5-2.7,0.9-4.4c0.3-1.4,0.3-2.9,0.1-4.4c-0.2-2.9,1.1-6.5,1.3-8
			s-2-5.8-1.7-7.6s2-6.6,1.1-7.8s2.6-1.9,2.3-3s-6.6-4.4-7.8-5.8s-3.3-4.4-4.2-5.1S39.8,40.5,41,41z"/>
		<path class="st10" d="M35.1,47c-1.5-1,0.2-2.9,2.4,0.2c1.5,2.1,2.5,0.2,7.2,5.9c1.6,2,2.3,2.2,2.3,3.8s-0.7,4-2.4,4.4
			s-3.8-1.2-3.7-3.7c0.1-1.9-0.7-3.7-2-5.1C37.8,51.1,35.9,47.6,35.1,47z"/>
		<path class="st10" d="M23.5,48.9c1.9,0.4,3.7,1.2,5.3,2.4c1.7,1.2,2.9,2.8,3.7,4.7c0.4,1,1.1,1.7,0.1,3.4S30.5,62,30.8,63
			s-0.6,9-0.8,10.5s-1.4,9.6-1,11.8s1.1,7,0.7,8.1s-3.4,1.4-3.1-0.3c0.3-2.3,0.5-4.6,0.6-6.9c0.1-1.7-1.6-13.8-0.5-15.4
			s2.7-6.2,2.3-7.2s-1.3-3.9-0.9-4.9s3.3-2,2.1-3S27,51.5,26,51.2S21.9,48.4,23.5,48.9z"/>
		<path class="st10" d="M15.4,54.6c0,0.6,0.2,1.3,0.4,1.9c0.2,0.2-0.7,0.3-0.8-0.5S15,53.7,15.4,54.6z"/>
		<path class="st10" d="M16.6,56.7c0.1,0,1.3-0.2,1.5,1.4c0.3,1.6,0.3,3.3,0,4.9c-0.5,1.8-2.9,1.7-2.8,0.7s1.4-3.5,1.1-4.1
			s-0.4-1.2-1-1.3S15.1,57.2,16.6,56.7z"/>
		<path class="st10" d="M6.1,58.3c0,0,1.5-0.6,1.4,1.7s-0.6,9.6-0.8,12S6.4,82.2,6.4,83.2S6.1,92.6,6.8,94s0.8,3.9-0.8,4
			c-1.1,0.2-2.1-0.5-2.3-1.6c-0.1-0.4,0-0.9,0.2-1.3c0.7-3,1-6.2,0.9-9.3C4.4,82.5,4.3,79,4.4,75.6c0.1-2.7-0.5-6.9,0.4-9.4
			c0.7-2.1,1-4.2,0.8-6.4C5.4,59.3,5.2,58.3,6.1,58.3z"/>
		<path class="st11" d="M3.2,56.6c0.4-0.3,0.9-0.3,1.3-0.1c0.7,0.4,1.3,0.9,0.9,1s-0.6,0.5-1,0.5S1.8,57.7,3.2,56.6z"/>
		<path class="st11" d="M11.8,54c0.4-0.5,1.1-0.6,1.7-0.5c1.1,0.3,0.6,0.4,0.6,1.2s0.4,1.3,0.6,1.3s-0.3,0.5-0.7,0.4
			s-2.2-0.9-2.3-1.3S11.3,54.4,11.8,54z"/>
		<path class="st8" d="M22.1,48.8c-0.1,0-1.3,0.4-1,1.4s3.2,3.3,4.9,3.7s2.4,1.3,2.4,2.1s0.9,0.5,0.6-0.5s-1.6-3.3-2.9-3.5
			c-1.1-0.2-2.1-0.8-2.8-1.6C23,49.9,22.9,48.7,22.1,48.8z"/>
		<path class="st8" d="M37.3,51.7c-0.4,0.3-2.2-1-4.1-3s-3.1-3.9-2.8-4.2s2.1,0.5,4,2.4S37.7,51.4,37.3,51.7z"/>
		<path class="st8" d="M45.6,51.2c-0.5,0.5-2.7-2.4-5.5-5.3s-5.4-4.9-4.9-5.4s3.8,1.1,6.7,4S46.1,50.7,45.6,51.2z"/>
		<path class="st8" d="M49.3,35.2c0.4-0.4,1-0.4,1.4-0.1c0,0,0,0,0.1,0.1c1.1,1,2,2,2.8,3.2c0.3,1,1,1.8,1.9,2.3
			c1.6,0.9,3,2.2,4.1,3.7c0.6,1.1-1.1-0.7-1.8-1.2c-1.2-0.6-2.4-1.2-3.7-1.7c-0.5-0.2-0.5-1.1-0.9-2S47.7,36.3,49.3,35.2z"/>
		<path class="st11" d="M84.2,45.2c-0.2,0.4-1.2,0.4-2.2-0.1s-1.7-1.2-1.5-1.5s1.2-0.4,2.2,0.1S84.4,44.8,84.2,45.2z"/>
		<path class="st11" d="M96.3,41.3c0,0.6-1,1.1-2.2,1.1S92,42,92,41.3s1-1.1,2.2-1.1S96.3,40.8,96.3,41.3z"/>
		<path class="st7" d="M33.6,47.9c-0.2,0.2-0.8-0.3-1.4-1s-0.9-1.4-0.7-1.5s0.8,0.3,1.4,1S33.8,47.7,33.6,47.9z"/>
		<path class="st7" d="M25.1,52.5c-0.9-0.1-1.8-0.5-2.5-1.2c-0.6-0.7-1.4-1.6-0.8-1.9s0.9,0.7,1.5,1.4S25.3,52.3,25.1,52.5z"/>
		<path class="st7" d="M13.3,54.5c0,0.3-0.3,0.6-0.6,0.6c-0.3,0-0.6-0.3-0.6-0.6c0-0.3,0.3-0.6,0.6-0.6
			C13.1,53.9,13.3,54.1,13.3,54.5z"/>
		<path class="st7" d="M4.4,57c0,0.1-0.3,0.3-0.7,0.3S3,57.1,3,57s0.3-0.3,0.7-0.3S4.4,56.8,4.4,57z"/>
		<g id="Layer_10">
			<path class="st12" d="M76.5,28.1c0,6.3-5.1,11.5-11.5,11.5c-6.3,0-11.5-5.1-11.5-11.5S58.6,16.6,65,16.6c0,0,0,0,0,0
				C71.3,16.6,76.5,21.7,76.5,28.1z"/>
			<path class="st13" d="M68.4,18.2c0,0,8.5,5.2,2.8,13.6c-3.5,5.1-10,4.7-13.4,3.6c-2.3-0.8,3.7,6.4,11.8,2.2S77.8,21,68.4,18.2z"
				/>
			<path class="st8" d="M68.3,19.5c-0.2,2.1-0.6,3.3-3.4,4.7c-2.9,1.4-6.3,1-7.2-0.9s0.5-4,3.3-5.5c-0.3,0.1-0.6,0.2-0.9,0.4
				c-3.5,1.7-5.6,4.4-4.5,6.6s5.8,3.1,9.2,1.4S69.4,21.7,68.3,19.5z"/>
			<path class="st8" d="M58.8,31.2c0.1,1.5,0.1,2.9-0.8,3s-1.9-1.2-2-2.8s0.5-2.9,1.5-3S58.7,29.7,58.8,31.2z"/>
			<path class="st6" d="M58.6,25.9c-0.7,0.1-1.3-0.1-1.8-0.6c-0.5-0.4-0.9-1.1-0.9-1.7c0.1-0.1,0.5,0.6,1.3,1.3S58.7,25.8,58.6,25.9
				z"/>
			<path class="st12" d="M63.4,22.1c0,0-1.6-8-2.5-11.5S58.8,1.3,59,0.4S56.3,0.1,56.7,1s1,8.1,2.3,11.2S62.3,25.1,63.4,22.1z"/>
			<path class="st14" d="M67.1,20.3c-0.5-0.3-1.6,1.2-3.9,1.4l-1.8-8.4c-0.1-0.4-2.2-9.4-2.2-10S58.8,1.7,59,1.1s-0.7-0.5-0.7-0.5
				c0.4,0,0.7,0.4-0.3,0.7s-1.3,0-1.3,0c-0.2,0.4,0.5,0.5,0.7,0.6s0.6,1.1,0.8,1.8s1.3,6.2,1.7,7.3c0.5,1.8,0.9,3.7,1.2,5.6
				c0.2,1.6,0.6,4.1,0.7,5.1l-0.5-0.1c-2-0.4-1.7-1.8-1.7-1.8c0.1-1.7-3.9,3.1,1,3.8C65.4,24.3,67.7,20.7,67.1,20.3z"/>
			<path class="st15" d="M57.3,1.7c0.5,1,0.8,2.2,0.9,3.3c0.4,2.3,0.9,4.6,1.6,6.8c0.3,1.1,1.9,7.2,1.8,8.5c0,0.8-1-5.2-2.1-7.6
				C59,11.6,58.2,10.9,57.3,1.7z"/>
			<path class="st15" d="M69.4,27.7c-0.7,4.9-3.3,7.7-8.3,7.5c-8.2-0.3-6.8-10.1-6-9.4c1.6,1.6,3.8,2.5,6,2.4
				C66.4,28.3,70.1,23.3,69.4,27.7z"/>
		</g>
	</g>
</g>
</svg>
