<svg width="1161" height="226" viewBox="0 0 1161 226" fill="none" xmlns="http://www.w3.org/2000/svg">
<g clip-path="url(#clip0)">
<path d="M1097.96 226H74.2326C64.7044 226 56.9816 220.612 56.9816 214.027V57.7835C56.9816 51.1985 64.7044 45.8108 74.2326 45.8108H1097.96C1107.49 45.8108 1115.21 51.1985 1115.21 57.7835V214.127C1115.11 220.612 1107.49 226 1097.96 226Z" fill="#E99B49" stroke="#282828" stroke-width="5" stroke-miterlimit="10"/>
<path d="M23.0755 16.4956C24.5905 8.75945 33.8698 3.05405 44.7589 3.05405H1123.91C1138.4 3.05405 1150.14 11.5638 1150.14 22.0076C1150.14 22.0076 1152.98 44.1523 1147.11 50.1478C1131.96 65.0399 1082.44 67.9409 1058.95 74.1299C1030.83 81.6726 993.998 119.483 951.295 119.773C903.951 120.063 821.384 67.264 769.211 67.6508C719.216 68.0377 634.566 120.45 584.476 119.773C533.156 119.096 474.45 73.1628 400.025 70.5519C374.933 69.6816 318.689 82.2528 310.641 99.4657C302.876 115.808 304.77 151.685 265.285 151.685C217.563 151.685 219.362 141.144 201.466 94.7273C188.778 62.1388 58.1098 82.6396 26.2949 59.0444C17.5836 52.5654 20.2349 30.9042 23.0755 16.4956Z" fill="#EEEDF0" stroke="#282828" stroke-width="4"/>
</g>
<defs>
<clipPath id="clip0">
<rect width="1161" height="226" fill="white"/>
</clipPath>
</defs>
</svg>
