<svg width="1986" height="370" viewBox="0 0 1986 370" fill="none" xmlns="http://www.w3.org/2000/svg">
<path d="M1976 70.0086H10C10 37.3989 71.0244 10.9243 146.19 10.9243H1839.66C1914.98 10.9243 1976 37.3989 1976 70.0086Z" stroke="#333333" stroke-width="20" stroke-miterlimit="10"/>
<path d="M1594.17 359.828H391.825C391.825 328.219 451.005 302.544 523.865 302.544H1461.98C1534.99 302.544 1594.17 328.219 1594.17 359.828Z" stroke="#333333" stroke-width="20" stroke-miterlimit="10"/>
<path d="M915.221 101.751H1070.78C1070.78 101.751 1070.78 194.446 1070.78 215.052C1070.78 230.523 1168.08 253.596 1212.2 256.264C1297.05 261.399 1356.69 275.336 1366.52 302.944L646.529 302.611C640.841 270.802 724.154 258.598 794.863 253.463C836.519 250.462 915.374 225.388 915.374 215.052C915.221 199.58 915.221 101.751 915.221 101.751Z" stroke="#333333" stroke-width="20" stroke-miterlimit="10"/>
<path d="M1141.49 75.2768C1141.49 92.7487 1078.16 106.953 1000.07 106.953C921.984 106.953 858.654 92.7487 858.654 75.2768C858.654 73.4763 859.423 71.7424 860.652 70.0086H1139.64C1140.87 71.7424 1141.49 73.4763 1141.49 75.2768Z" fill="white" stroke="#333333" stroke-width="20" stroke-miterlimit="10"/>
</svg>
