<svg width="1300" height="350" viewBox="0 0 1300 350" fill="none" xmlns="http://www.w3.org/2000/svg">
<rect width="1300" height="350" fill="#E5E5E5"/>
<g clip-path="url(#clip0)">
<path d="M1289 63.3088H10C10 31.8474 49.7 6.30515 98.6 6.30515H1200.3C1249.3 6.30515 1289 31.8474 1289 63.3088Z" stroke="#333333" stroke-width="20" stroke-miterlimit="10"/>
<path d="M1040.6 342.923H258.4C258.4 312.426 296.9 287.656 344.3 287.656H954.6C1002.1 287.656 1040.6 312.426 1040.6 342.923Z" stroke="#333333" stroke-width="20" stroke-miterlimit="10"/>
<path d="M598.9 93.9338H700.1C700.1 93.9338 700.1 183.364 700.1 203.244C700.1 218.171 763.4 240.432 792.1 243.006C847.3 247.96 886.1 261.406 892.5 288.042L424.1 287.721C420.4 257.031 474.6 245.257 520.6 240.303C547.7 237.408 599 213.217 599 203.244C598.9 188.318 598.9 93.9338 598.9 93.9338Z" stroke="#333333" stroke-width="20" stroke-miterlimit="10"/>
<path d="M746.1 68.3915C746.1 85.2482 704.9 98.9522 654.1 98.9522C603.3 98.9522 562.1 85.2482 562.1 68.3915C562.1 66.6544 562.6 64.9816 563.4 63.3088H744.9C745.7 64.9816 746.1 66.6544 746.1 68.3915Z" fill="white" stroke="#333333" stroke-width="20" stroke-miterlimit="10"/>
<path d="M850.2 27.2794H635.5V37.8309H850.2V27.2794Z" fill="#333333"/>
<path d="M1270.4 27.2794H887.6V37.8309H1270.4V27.2794Z" fill="#333333"/>
</g>
<defs>
<clipPath id="clip0">
<rect width="1300" height="350" fill="white"/>
</clipPath>
</defs>
</svg>
