<svg width="2278" height="954" viewBox="0 0 2278 954" fill="none" xmlns="http://www.w3.org/2000/svg">
<path d="M2258.72 172.562H17.5231C17.5231 86.807 87.0897 17.186 172.778 17.186H2103.3C2189.16 17.186 2258.72 86.807 2258.72 172.562Z" fill="#2F3550" stroke="#4D4B4B" stroke-width="20" stroke-miterlimit="10"/>
<path d="M1823.45 934.71H452.796C452.796 851.585 520.26 784.069 603.32 784.069H1672.75C1755.99 784.069 1823.45 851.585 1823.45 934.71Z" fill="#2E344E" stroke="#4D4B4B" stroke-width="20" stroke-miterlimit="10"/>
<path d="M1049.46 256.037H1226.79C1226.79 256.037 1226.79 499.798 1226.79 553.986C1226.79 594.672 1337.71 655.349 1388 662.364C1484.73 675.867 1552.72 712.519 1563.93 785.121L743.154 784.244C736.67 700.594 831.645 668.501 912.251 654.998C959.739 647.107 1049.63 581.168 1049.63 553.986C1049.46 513.301 1049.46 256.037 1049.46 256.037Z" fill="#2E344E" stroke="#4D4B4B" stroke-width="20" stroke-miterlimit="10"/>
<path d="M1489.81 74.3559H1113.59V103.116H1489.81V74.3559Z" fill="#A1ADC3"/>
<path d="M2226.13 74.3559H1555.35V103.116H2226.13V74.3559Z" fill="#A1ADC4"/>
<path d="M1299.43 186.854C1299.43 232.8 1227.23 270.153 1138.21 270.153C1049.2 270.153 977 232.8 977 186.854C977 182.119 977.876 177.559 979.278 173H1297.32C1298.73 177.559 1299.43 182.119 1299.43 186.854Z" fill="#121735" stroke="#4D4B4B" stroke-width="20" stroke-miterlimit="10"/>
</svg>
